<?xml version="1.0" standalone="no"?>
<!DOCTYPE svg PUBLIC "-//W3C//DTD SVG 20010904//EN"
 "http://www.w3.org/TR/2001/REC-SVG-20010904/DTD/svg10.dtd">
<svg version="1.0" xmlns="http://www.w3.org/2000/svg"
 width="300.000000pt" height="300.000000pt" viewBox="0 0 300.000000 300.000000"
 preserveAspectRatio="xMidYMid meet">

<g transform="translate(0.000000,300.000000) scale(0.100000,-0.100000)"
fill="#000000" stroke="none">
<path d="M870 1923 c0 -168 6 -190 56 -228 46 -35 126 -8 150 52 16 38 20 333
5 333 -6 0 -11 -72 -13 -166 l-3 -166 -28 -24 c-36 -31 -78 -31 -114 0 l-28
24 -3 166 c-2 91 -8 166 -13 166 -5 0 -9 -69 -9 -157z"/>
<path d="M934 1915 c0 -82 2 -115 3 -72 2 43 2 110 0 150 -1 40 -3 5 -3 -78z"/>
<path d="M964 1915 c0 -82 2 -115 3 -72 2 43 2 110 0 150 -1 40 -3 5 -3 -78z"/>
<path d="M994 1915 c0 -82 2 -115 3 -72 2 43 2 110 0 150 -1 40 -3 5 -3 -78z"/>
<path d="M1024 1915 c0 -82 2 -115 3 -72 2 43 2 110 0 150 -1 40 -3 5 -3 -78z"/>
<path d="M617 1984 c-4 -5 45 -61 109 -125 108 -108 116 -119 116 -155 0 -49
-37 -84 -88 -84 -32 0 -48 12 -155 117 -65 64 -119 112 -119 107 0 -6 53 -63
118 -127 108 -106 122 -117 155 -117 26 0 46 9 72 31 30 27 35 37 35 76 0 44
-3 48 -118 165 -64 66 -121 116 -125 112z"/>
<path d="M695 1830 c55 -55 102 -100 105 -100 2 0 -40 45 -95 100 -55 55 -102
100 -105 100 -2 0 40 -45 95 -100z"/>
<path d="M630 1768 c57 -60 106 -108 107 -108 8 0 -5 13 -104 110 l-108 105
105 -107z"/>
<path d="M360 1590 c0 -6 61 -10 164 -10 159 0 164 -1 190 -25 36 -33 36 -92
0 -126 -25 -23 -32 -24 -190 -27 -90 -2 -164 -8 -164 -13 0 -5 72 -9 164 -9
l165 0 35 34 c29 27 36 41 36 72 0 46 -20 78 -60 99 -34 18 -340 22 -340 5z"/>
<path d="M924 1567 c-2 -7 -3 -56 -2 -108 l3 -94 70 0 c65 0 70 2 73 23 3 21
0 22 -52 22 -42 0 -56 4 -56 14 0 10 13 16 38 18 30 2 38 7 40 26 3 20 -1 22
-37 22 -34 0 -41 3 -41 20 0 18 7 20 56 20 52 0 55 1 52 23 -3 20 -9 22 -71
25 -50 2 -69 -1 -73 -11z"/>
<path d="M1225 1567 c-3 -7 -4 -56 -3 -108 l3 -94 64 -3 c44 -2 67 1 72 10 13
20 0 28 -46 28 l-44 0 -3 87 c-3 74 -6 88 -21 91 -9 2 -19 -3 -22 -11z"/>
<path d="M1395 1567 c-3 -7 -4 -56 -3 -108 3 -86 5 -94 23 -94 19 0 20 7 20
105 0 92 -2 105 -18 108 -9 2 -19 -3 -22 -11z"/>
<path d="M1475 1568 c-3 -8 -4 -57 -3 -109 l3 -94 52 -3 c46 -3 56 0 79 23 21
21 25 32 19 53 -4 15 -6 43 -6 62 2 55 -17 72 -82 78 -43 3 -58 1 -62 -10z
m103 -56 c2 -7 -5 -16 -17 -19 -27 -7 -27 -33 -1 -40 11 -3 20 -14 20 -24 0
-15 -7 -19 -35 -19 l-35 0 0 61 0 60 32 -3 c17 -2 33 -9 36 -16z"/>
<path d="M1654 1567 c-3 -8 -3 -56 -2 -108 3 -86 5 -94 23 -94 14 0 21 8 23
28 4 36 48 39 62 3 11 -30 22 -37 40 -26 11 7 11 14 1 38 -10 23 -10 35 -1 52
19 35 4 87 -30 105 -36 19 -109 20 -116 2z m101 -67 c0 -20 -6 -26 -27 -28
-25 -3 -28 0 -28 28 0 28 3 31 28 28 21 -2 27 -8 27 -28z"/>
<path d="M1874 1486 c-49 -103 -51 -111 -29 -120 10 -4 20 3 27 19 10 21 18
25 58 25 40 0 48 -4 58 -25 12 -25 42 -26 42 -1 0 22 -89 196 -100 196 -6 0
-31 -42 -56 -94z m70 -12 c9 -23 8 -24 -14 -24 -11 0 -20 2 -20 4 0 12 13 36
20 36 4 0 11 -7 14 -16z"/>
<path d="M2065 1568 c-3 -8 -4 -57 -3 -109 2 -76 6 -94 18 -94 9 0 16 11 18
28 5 39 46 38 67 -3 19 -38 50 -31 40 9 -8 31 -7 44 1 91 9 53 -18 81 -84 88
-39 3 -53 1 -57 -10z m94 -52 c18 -22 2 -46 -30 -46 -26 0 -29 4 -29 30 0 25
4 30 24 30 13 0 29 -6 35 -14z"/>
<path d="M2241 1566 c-9 -11 -5 -26 23 -69 20 -32 36 -70 38 -93 4 -54 32 -54
36 0 2 24 17 59 38 90 38 56 41 71 19 80 -11 4 -24 -9 -44 -40 l-28 -46 -32
46 c-18 25 -33 46 -35 46 -2 0 -9 -6 -15 -14z"/>
<path d="M1092 1423 c3 -14 13 -18 53 -18 38 0 50 4 50 15 0 11 -14 16 -53 18
-47 3 -53 1 -50 -15z"/>
<path d="M710 1369 c-33 -13 -241 -220 -233 -232 3 -5 56 41 117 102 91 91
119 113 148 118 32 5 41 1 68 -25 54 -54 43 -78 -89 -214 -62 -65 -110 -118
-104 -118 5 0 59 51 120 113 141 143 151 175 72 241 -32 27 -58 31 -99 15z"/>
<path d="M620 1213 l-105 -108 108 105 c99 97 112 110 104 110 -1 0 -50 -48
-107 -107z"/>
<path d="M921 1284 c-42 -30 -51 -71 -51 -234 0 -127 2 -150 15 -150 13 0 15
25 15 168 0 155 2 170 20 190 44 47 111 36 135 -23 11 -25 15 -76 15 -185 0
-93 4 -150 10 -150 6 0 10 62 10 165 l0 164 -31 36 c-26 30 -38 35 -73 35 -23
0 -52 -7 -65 -16z"/>
<path d="M670 1173 l-105 -108 108 105 c99 97 112 110 104 110 -1 0 -50 -48
-107 -107z"/>
<path d="M690 1153 l-105 -108 108 105 c59 57 107 106 107 107 0 8 -13 -5
-110 -104z"/>
<path d="M934 1075 c0 -82 2 -115 3 -72 2 43 2 110 0 150 -1 40 -3 5 -3 -78z"/>
<path d="M964 1075 c0 -82 2 -115 3 -72 2 43 2 110 0 150 -1 40 -3 5 -3 -78z"/>
<path d="M994 1075 c0 -82 2 -115 3 -72 2 43 2 110 0 150 -1 40 -3 5 -3 -78z"/>
<path d="M1024 1075 c0 -82 2 -115 3 -72 2 43 2 110 0 150 -1 40 -3 5 -3 -78z"/>
</g>
</svg>
